<svg width="402" height="153" viewBox="0 0 402 153" fill="none" xmlns="http://www.w3.org/2000/svg">
<path d="M144.237 22.1004L1 104.5L63.8393 59.0936V30.1094H84.9397V43.8468L144.237 1L287.473 104.5L144.237 22.1004Z" fill="#5D5FEF"/>
<path d="M63.8393 59.0936L1 104.5L144.237 22.1004L287.473 104.5L144.237 1L84.9397 43.8468M63.8393 59.0936V30.1094H84.9397V43.8468M63.8393 59.0936L84.9397 43.8468" stroke="#5D5FEF"/>
<path d="M253.435 74.1585L247.737 70.308L301.489 31.9576L401.754 104.5L301.489 46.4353L253.435 74.1585Z" fill="#7879F1"/>
<rect x="287.627" y="64.6094" width="13.8616" height="13.8616" fill="#F178B6"/>
<rect x="120.98" y="47.6674" width="20.9464" height="21.5625" fill="#EF5DA8"/>
<rect x="287.627" y="81.2433" width="13.8616" height="13.8616" fill="#F178B6"/>
<rect x="120.98" y="73.8505" width="20.9464" height="21.5625" fill="#EF5DA8"/>
<rect x="304.569" y="64.6094" width="13.8616" height="13.8616" fill="#F178B6"/>
<rect x="146.855" y="47.6674" width="20.9464" height="21.5625" fill="#EF5DA8"/>
<rect x="304.569" y="81.2433" width="13.8616" height="13.8616" fill="#F178B6"/>
<rect x="146.855" y="73.8505" width="20.9464" height="21.5625" fill="#EF5DA8"/>
<path d="M41.4386 144.5V122.452H52.162C54.879 122.474 56.8834 122.998 58.1751 124.022C59.4668 125.024 60.1127 126.483 60.1127 128.398C60.1127 129.645 59.7452 130.726 59.0103 131.639C58.2753 132.529 57.1507 133.097 55.6362 133.342V133.376C57.3288 133.598 58.5871 134.189 59.4111 135.146C60.2574 136.082 60.6806 137.217 60.6806 138.554C60.6806 140.447 60.0125 141.917 58.6762 142.963C57.34 143.988 55.3356 144.5 52.6631 144.5H41.4386ZM46.9841 140.458H51.6943C52.7411 140.458 53.5205 140.246 54.0328 139.823C54.545 139.4 54.8011 138.788 54.8011 137.986C54.8011 137.206 54.545 136.616 54.0328 136.215C53.5205 135.792 52.7411 135.581 51.6943 135.581H46.9841V140.458ZM46.9841 131.472H51.1598C53.2087 131.472 54.2332 130.67 54.2332 129.066C54.2332 127.463 53.2087 126.661 51.1598 126.661H46.9841V131.472ZM66.0454 125.859C64.8873 125.859 64.041 125.648 63.5065 125.225C62.9943 124.779 62.7382 124.089 62.7382 123.153C62.7382 122.196 62.9943 121.505 63.5065 121.082C64.041 120.637 64.8873 120.414 66.0454 120.414C67.1812 120.414 68.0163 120.637 68.5508 121.082C69.0853 121.505 69.3526 122.196 69.3526 123.153C69.3526 124.089 69.0853 124.779 68.5508 125.225C68.0163 125.648 67.1812 125.859 66.0454 125.859ZM68.8849 127.797V144.5H63.2059V127.797H68.8849ZM80.4105 144.834C78.5621 144.834 76.9586 144.489 75.6001 143.798C74.2638 143.108 73.2282 142.117 72.4933 140.825C71.7584 139.534 71.3909 137.975 71.3909 136.148C71.3909 134.322 71.7584 132.763 72.4933 131.472C73.2282 130.18 74.2527 129.189 75.5667 128.498C76.9029 127.808 78.4284 127.463 80.1433 127.463C81.9027 127.463 83.3948 127.808 84.6197 128.498C85.8669 129.167 86.8134 130.102 87.4592 131.305C88.1051 132.485 88.428 133.843 88.428 135.38C88.428 135.781 88.4169 136.182 88.3946 136.583C88.3723 136.984 88.3389 137.318 88.2944 137.585H75.0656V134.545H85.7889L83.083 135.581C83.083 134.244 82.8381 133.22 82.3481 132.507C81.8804 131.795 81.1455 131.438 80.1433 131.438C79.4306 131.438 78.8182 131.605 78.306 131.939C77.816 132.273 77.4374 132.797 77.1701 133.509C76.9252 134.222 76.8027 135.135 76.8027 136.249C76.8027 137.34 76.9474 138.231 77.237 138.921C77.5265 139.589 77.9385 140.079 78.473 140.391C79.0075 140.681 79.6533 140.825 80.4105 140.825C81.2568 140.825 81.925 140.658 82.4149 140.324C82.9271 139.99 83.3057 139.522 83.5507 138.921L88.0939 140.424C87.7822 141.382 87.2365 142.195 86.457 142.863C85.6998 143.509 84.7867 143.999 83.7177 144.333C82.671 144.667 81.5686 144.834 80.4105 144.834ZM90.9369 144.5V127.797H96.0146L96.3152 133.543L95.6805 132.908C95.9032 131.705 96.293 130.703 96.8497 129.902C97.4288 129.1 98.1414 128.498 98.9877 128.098C99.8563 127.674 100.825 127.463 101.894 127.463C103.052 127.463 104.054 127.686 104.901 128.131C105.769 128.576 106.448 129.233 106.938 130.102C107.428 130.971 107.673 132.062 107.673 133.376V144.5H101.994V134.879C101.994 133.721 101.772 132.919 101.326 132.474C100.881 132.028 100.313 131.806 99.6225 131.806C99.088 131.806 98.5869 131.939 98.1192 132.207C97.6515 132.452 97.284 132.852 97.0168 133.409C96.7495 133.966 96.6159 134.712 96.6159 135.647V144.5H90.9369ZM119.136 144.834C117.287 144.834 115.684 144.489 114.325 143.798C112.989 143.108 111.953 142.117 111.218 140.825C110.483 139.534 110.116 137.975 110.116 136.148C110.116 134.322 110.483 132.763 111.218 131.472C111.953 130.18 112.978 129.189 114.292 128.498C115.628 127.808 117.153 127.463 118.868 127.463C120.628 127.463 122.12 127.808 123.345 128.498C124.592 129.167 125.538 130.102 126.184 131.305C126.83 132.485 127.153 133.843 127.153 135.38C127.153 135.781 127.142 136.182 127.12 136.583C127.097 136.984 127.064 137.318 127.019 137.585H113.791V134.545H124.514L121.808 135.581C121.808 134.244 121.563 133.22 121.073 132.507C120.605 131.795 119.87 131.438 118.868 131.438C118.156 131.438 117.543 131.605 117.031 131.939C116.541 132.273 116.162 132.797 115.895 133.509C115.65 134.222 115.528 135.135 115.528 136.249C115.528 137.34 115.672 138.231 115.962 138.921C116.251 139.589 116.663 140.079 117.198 140.391C117.732 140.681 118.378 140.825 119.136 140.825C119.982 140.825 120.65 140.658 121.14 140.324C121.652 139.99 122.031 139.522 122.276 138.921L126.819 140.424C126.507 141.382 125.962 142.195 125.182 142.863C124.425 143.509 123.512 143.999 122.443 144.333C121.396 144.667 120.294 144.834 119.136 144.834ZM136.677 144.834C135.007 144.834 133.448 144.567 132 144.032C130.575 143.476 129.395 142.685 128.459 141.66L131.132 138.52C131.689 139.233 132.423 139.834 133.337 140.324C134.272 140.792 135.308 141.026 136.443 141.026C137.134 141.026 137.702 140.926 138.147 140.725C138.592 140.525 138.815 140.213 138.815 139.79C138.815 139.478 138.704 139.233 138.481 139.055C138.258 138.854 137.813 138.687 137.145 138.554L134.806 138.086C132.713 137.663 131.221 137.039 130.33 136.215C129.461 135.369 129.027 134.267 129.027 132.908C129.027 131.995 129.306 131.126 129.862 130.302C130.419 129.456 131.276 128.777 132.435 128.265C133.593 127.73 135.074 127.463 136.878 127.463C138.57 127.463 140.062 127.708 141.354 128.198C142.646 128.688 143.67 129.4 144.427 130.336L141.721 133.409C141.187 132.741 140.497 132.218 139.65 131.839C138.804 131.46 137.958 131.271 137.111 131.271C136.577 131.271 136.12 131.327 135.742 131.438C135.385 131.527 135.118 131.661 134.94 131.839C134.762 132.017 134.673 132.24 134.673 132.507C134.673 132.797 134.806 133.053 135.074 133.276C135.363 133.476 135.887 133.654 136.644 133.81L139.684 134.411C141.399 134.723 142.635 135.291 143.392 136.115C144.149 136.939 144.528 137.93 144.528 139.088C144.528 140.179 144.238 141.159 143.659 142.028C143.08 142.897 142.211 143.587 141.053 144.099C139.895 144.589 138.437 144.834 136.677 144.834ZM166.749 138.186C166.326 139.723 165.647 140.992 164.712 141.995C163.776 142.974 162.663 143.698 161.371 144.166C160.079 144.611 158.654 144.834 157.095 144.834C154.868 144.834 152.942 144.389 151.316 143.498C149.69 142.585 148.443 141.282 147.574 139.589C146.706 137.897 146.271 135.859 146.271 133.476C146.271 131.093 146.706 129.055 147.574 127.363C148.443 125.67 149.69 124.378 151.316 123.488C152.942 122.574 154.857 122.118 157.062 122.118C158.598 122.118 160.013 122.341 161.304 122.786C162.596 123.209 163.687 123.866 164.578 124.757C165.469 125.648 166.104 126.795 166.482 128.198L161.438 130.236C161.126 128.855 160.614 127.908 159.901 127.396C159.211 126.884 158.331 126.628 157.262 126.628C156.215 126.628 155.302 126.884 154.523 127.396C153.766 127.908 153.175 128.677 152.752 129.701C152.351 130.703 152.151 131.962 152.151 133.476C152.151 134.968 152.34 136.226 152.719 137.251C153.097 138.275 153.665 139.044 154.423 139.556C155.202 140.068 156.16 140.324 157.296 140.324C158.365 140.324 159.266 140.035 160.001 139.456C160.759 138.854 161.271 137.941 161.538 136.716L166.749 138.186ZM176.827 127.463C178.586 127.463 180.123 127.808 181.437 128.498C182.773 129.167 183.809 130.158 184.544 131.472C185.301 132.763 185.679 134.322 185.679 136.148C185.679 137.975 185.301 139.545 184.544 140.859C183.809 142.15 182.773 143.141 181.437 143.832C180.123 144.5 178.586 144.834 176.827 144.834C175.112 144.834 173.586 144.5 172.25 143.832C170.914 143.141 169.867 142.15 169.11 140.859C168.375 139.545 168.008 137.975 168.008 136.148C168.008 134.322 168.375 132.763 169.11 131.472C169.867 130.158 170.914 129.167 172.25 128.498C173.586 127.808 175.112 127.463 176.827 127.463ZM176.827 131.505C176.181 131.505 175.624 131.661 175.157 131.973C174.689 132.284 174.333 132.786 174.088 133.476C173.843 134.166 173.72 135.057 173.72 136.148C173.72 137.24 173.843 138.131 174.088 138.821C174.333 139.489 174.689 139.99 175.157 140.324C175.624 140.636 176.181 140.792 176.827 140.792C177.495 140.792 178.063 140.636 178.531 140.324C178.998 139.99 179.355 139.489 179.6 138.821C179.845 138.131 179.967 137.24 179.967 136.148C179.967 135.057 179.845 134.166 179.6 133.476C179.355 132.786 178.998 132.284 178.531 131.973C178.063 131.661 177.495 131.505 176.827 131.505ZM188.206 144.5V127.797H193.284L193.451 131.037C193.985 129.857 194.731 128.966 195.689 128.365C196.669 127.764 197.794 127.463 199.063 127.463C200.31 127.463 201.39 127.741 202.303 128.298C203.217 128.855 203.896 129.679 204.341 130.77C204.698 130.035 205.154 129.423 205.711 128.933C206.29 128.443 206.947 128.075 207.682 127.83C208.417 127.585 209.174 127.463 209.953 127.463C211.067 127.463 212.047 127.686 212.893 128.131C213.74 128.554 214.408 129.211 214.898 130.102C215.41 130.971 215.666 132.062 215.666 133.376V144.5H209.987V134.679C209.987 133.61 209.775 132.864 209.352 132.44C208.951 132.017 208.406 131.806 207.715 131.806C207.158 131.806 206.646 131.95 206.179 132.24C205.733 132.507 205.388 132.919 205.143 133.476C204.898 134.033 204.776 134.734 204.776 135.581V144.5H199.096V134.679C199.096 133.61 198.885 132.864 198.462 132.44C198.039 132.017 197.493 131.806 196.825 131.806C196.313 131.806 195.823 131.939 195.355 132.207C194.91 132.474 194.553 132.897 194.286 133.476C194.019 134.033 193.885 134.768 193.885 135.681V144.5H188.206ZM218.987 151.515V127.797H224.098L224.398 133.843L223.73 133.142C223.886 132.028 224.231 131.048 224.766 130.202C225.3 129.356 225.991 128.688 226.837 128.198C227.683 127.708 228.652 127.463 229.743 127.463C231.124 127.463 232.327 127.808 233.351 128.498C234.376 129.167 235.166 130.147 235.723 131.438C236.302 132.708 236.592 134.255 236.592 136.082C236.592 137.908 236.302 139.478 235.723 140.792C235.144 142.106 234.331 143.108 233.285 143.798C232.26 144.489 231.057 144.834 229.677 144.834C228.162 144.834 226.937 144.389 226.002 143.498C225.067 142.585 224.443 141.438 224.131 140.057L224.666 139.255V151.515H218.987ZM227.739 140.658C228.719 140.658 229.487 140.302 230.044 139.589C230.601 138.854 230.879 137.707 230.879 136.148C230.879 134.59 230.601 133.454 230.044 132.741C229.51 132.006 228.752 131.639 227.773 131.639C227.149 131.639 226.603 131.817 226.136 132.173C225.668 132.507 225.3 133.008 225.033 133.676C224.788 134.345 224.666 135.169 224.666 136.148C224.666 137.084 224.777 137.897 225 138.587C225.245 139.255 225.601 139.767 226.069 140.124C226.536 140.48 227.093 140.658 227.739 140.658ZM248.42 133.91C248.42 133.131 248.197 132.518 247.752 132.073C247.329 131.605 246.75 131.371 246.015 131.371C245.28 131.371 244.645 131.561 244.11 131.939C243.598 132.296 243.242 132.941 243.041 133.877L238.231 132.741C238.543 131.138 239.367 129.857 240.703 128.899C242.039 127.942 243.921 127.463 246.349 127.463C247.974 127.463 249.355 127.708 250.491 128.198C251.649 128.665 252.529 129.378 253.13 130.336C253.754 131.271 254.065 132.429 254.065 133.81V139.923C254.065 140.792 254.455 141.226 255.235 141.226C255.636 141.226 255.958 141.182 256.203 141.093L255.869 144.333C255.201 144.645 254.388 144.801 253.431 144.801C252.562 144.801 251.794 144.667 251.126 144.4C250.458 144.11 249.934 143.687 249.556 143.13C249.177 142.551 248.988 141.828 248.988 140.959V140.759L249.622 140.525C249.622 141.482 249.333 142.284 248.754 142.93C248.197 143.576 247.462 144.055 246.549 144.366C245.658 144.678 244.723 144.834 243.743 144.834C242.607 144.834 241.616 144.656 240.77 144.3C239.924 143.943 239.267 143.431 238.799 142.763C238.353 142.072 238.131 141.226 238.131 140.224C238.131 139.021 238.487 138.03 239.2 137.251C239.935 136.449 241.082 135.892 242.641 135.581L248.954 134.278L248.921 137.284L245.714 137.952C245.046 138.086 244.545 138.286 244.211 138.554C243.899 138.799 243.743 139.177 243.743 139.69C243.743 140.179 243.921 140.547 244.277 140.792C244.634 141.037 245.057 141.159 245.547 141.159C245.926 141.159 246.282 141.104 246.616 140.992C246.972 140.881 247.284 140.714 247.551 140.491C247.819 140.246 248.03 139.946 248.186 139.589C248.342 139.233 248.42 138.81 248.42 138.32V133.91ZM257.777 144.5V127.797H262.788L263.022 131.405C263.445 130.158 264.068 129.189 264.892 128.498C265.739 127.808 266.808 127.463 268.099 127.463C268.523 127.463 268.879 127.496 269.168 127.563C269.48 127.63 269.725 127.719 269.903 127.83L269.335 132.507C269.113 132.418 268.823 132.351 268.467 132.307C268.133 132.24 267.721 132.207 267.231 132.207C266.563 132.207 265.939 132.351 265.36 132.641C264.781 132.93 264.313 133.365 263.957 133.944C263.623 134.5 263.456 135.213 263.456 136.082V144.5H257.777ZM278.021 122.485V138.554C278.021 139.355 278.21 139.934 278.589 140.291C278.99 140.625 279.535 140.792 280.226 140.792C280.76 140.792 281.217 140.736 281.595 140.625C281.996 140.491 282.352 140.302 282.664 140.057L283.266 143.565C282.709 143.966 282.007 144.277 281.161 144.5C280.315 144.723 279.446 144.834 278.555 144.834C277.286 144.834 276.183 144.656 275.248 144.3C274.335 143.943 273.622 143.375 273.11 142.596C272.62 141.816 272.364 140.781 272.342 139.489V124.055L278.021 122.485ZM282.998 127.797V131.839H269.469V127.797H282.998ZM287.793 125.859C286.635 125.859 285.788 125.648 285.254 125.225C284.742 124.779 284.486 124.089 284.486 123.153C284.486 122.196 284.742 121.505 285.254 121.082C285.788 120.637 286.635 120.414 287.793 120.414C288.929 120.414 289.764 120.637 290.298 121.082C290.833 121.505 291.1 122.196 291.1 123.153C291.1 124.089 290.833 124.779 290.298 125.225C289.764 125.648 288.929 125.859 287.793 125.859ZM290.632 127.797V144.5H284.953V127.797H290.632ZM300.154 144.834C298.773 144.834 297.559 144.5 296.512 143.832C295.488 143.141 294.686 142.15 294.107 140.859C293.55 139.567 293.272 138.019 293.272 136.215C293.272 134.345 293.562 132.763 294.141 131.472C294.742 130.18 295.566 129.189 296.613 128.498C297.682 127.808 298.906 127.463 300.287 127.463C301.802 127.463 303.015 127.931 303.929 128.866C304.864 129.779 305.465 130.948 305.732 132.374L305.198 133.075V120.715H310.877V144.5H305.799L305.432 138.821L306.1 139.322C305.966 140.436 305.621 141.404 305.064 142.228C304.53 143.052 303.839 143.698 302.993 144.166C302.169 144.611 301.223 144.834 300.154 144.834ZM302.125 140.658C302.77 140.658 303.316 140.491 303.762 140.157C304.229 139.801 304.586 139.278 304.831 138.587C305.075 137.897 305.198 137.05 305.198 136.048C305.198 135.113 305.075 134.322 304.831 133.676C304.608 133.008 304.263 132.507 303.795 132.173C303.35 131.817 302.804 131.639 302.158 131.639C301.178 131.639 300.399 132.006 299.82 132.741C299.263 133.454 298.984 134.59 298.984 136.148C298.984 137.707 299.263 138.854 299.82 139.589C300.376 140.302 301.145 140.658 302.125 140.658ZM322.234 127.463C323.993 127.463 325.53 127.808 326.844 128.498C328.18 129.167 329.215 130.158 329.95 131.472C330.708 132.763 331.086 134.322 331.086 136.148C331.086 137.975 330.708 139.545 329.95 140.859C329.215 142.15 328.18 143.141 326.844 143.832C325.53 144.5 323.993 144.834 322.234 144.834C320.519 144.834 318.993 144.5 317.657 143.832C316.321 143.141 315.274 142.15 314.517 140.859C313.782 139.545 313.414 137.975 313.414 136.148C313.414 134.322 313.782 132.763 314.517 131.472C315.274 130.158 316.321 129.167 317.657 128.498C318.993 127.808 320.519 127.463 322.234 127.463ZM322.234 131.505C321.588 131.505 321.031 131.661 320.563 131.973C320.096 132.284 319.739 132.786 319.494 133.476C319.249 134.166 319.127 135.057 319.127 136.148C319.127 137.24 319.249 138.131 319.494 138.821C319.739 139.489 320.096 139.99 320.563 140.324C321.031 140.636 321.588 140.792 322.234 140.792C322.902 140.792 323.47 140.636 323.937 140.324C324.405 139.99 324.761 139.489 325.006 138.821C325.251 138.131 325.374 137.24 325.374 136.148C325.374 135.057 325.251 134.166 325.006 133.476C324.761 132.786 324.405 132.284 323.937 131.973C323.47 131.661 322.902 131.505 322.234 131.505ZM340.628 144.834C338.958 144.834 337.399 144.567 335.951 144.032C334.526 143.476 333.346 142.685 332.41 141.66L335.083 138.52C335.639 139.233 336.374 139.834 337.287 140.324C338.223 140.792 339.258 141.026 340.394 141.026C341.085 141.026 341.652 140.926 342.098 140.725C342.543 140.525 342.766 140.213 342.766 139.79C342.766 139.478 342.655 139.233 342.432 139.055C342.209 138.854 341.764 138.687 341.096 138.554L338.757 138.086C336.664 137.663 335.172 137.039 334.281 136.215C333.412 135.369 332.978 134.267 332.978 132.908C332.978 131.995 333.256 131.126 333.813 130.302C334.37 129.456 335.227 128.777 336.385 128.265C337.544 127.73 339.025 127.463 340.828 127.463C342.521 127.463 344.013 127.708 345.305 128.198C346.597 128.688 347.621 129.4 348.378 130.336L345.672 133.409C345.138 132.741 344.447 132.218 343.601 131.839C342.755 131.46 341.909 131.271 341.062 131.271C340.528 131.271 340.071 131.327 339.693 131.438C339.336 131.527 339.069 131.661 338.891 131.839C338.713 132.017 338.624 132.24 338.624 132.507C338.624 132.797 338.757 133.053 339.025 133.276C339.314 133.476 339.837 133.654 340.595 133.81L343.635 134.411C345.349 134.723 346.585 135.291 347.343 136.115C348.1 136.939 348.478 137.93 348.478 139.088C348.478 140.179 348.189 141.159 347.61 142.028C347.031 142.897 346.162 143.587 345.004 144.099C343.846 144.589 342.387 144.834 340.628 144.834Z" fill="#0B0D17"/>
</svg>
