<svg width="402" height="105" viewBox="0 0 402 105" fill="none" xmlns="http://www.w3.org/2000/svg">
<path d="M144.237 22.1004L1 104.5L63.8393 59.0935V30.1094H84.9397V43.8468L144.237 1L287.473 104.5L144.237 22.1004Z" fill="white"/>
<path d="M63.8393 59.0935L1 104.5L144.237 22.1004L287.473 104.5L144.237 1L84.9397 43.8468M63.8393 59.0935V30.1094H84.9397V43.8468M63.8393 59.0935L84.9397 43.8468" stroke="white"/>
<path d="M253.435 74.1585L247.737 70.308L301.489 31.9576L401.754 104.5L301.489 46.4353L253.435 74.1585Z" fill="white"/>
<rect x="287.627" y="64.6094" width="13.8616" height="13.8616" fill="white"/>
<rect x="120.98" y="47.6674" width="20.9464" height="21.5625" fill="white"/>
<rect x="287.627" y="81.2433" width="13.8616" height="13.8616" fill="white"/>
<rect x="120.98" y="73.8505" width="20.9464" height="21.5625" fill="white"/>
<rect x="304.569" y="64.6094" width="13.8616" height="13.8616" fill="white"/>
<rect x="146.855" y="47.6674" width="20.9464" height="21.5625" fill="white"/>
<rect x="304.569" y="81.2433" width="13.8616" height="13.8616" fill="white"/>
<rect x="146.855" y="73.8505" width="20.9464" height="21.5625" fill="white"/>
</svg>
